<svg width="24" height="16" viewBox="0 0 24 16" fill="none" xmlns="http://www.w3.org/2000/svg">
<path d="M14.5299 6.31328L9.46992 9.68661C8.81992 9.25328 8.41992 8.65995 8.41992 7.99995C8.41992 6.67995 10.0199 5.61328 11.9999 5.61328C12.9899 5.61328 13.8799 5.87995 14.5299 6.31328Z" stroke="#8A8A8A" stroke-width="1.5" stroke-linecap="round" stroke-linejoin="round"/>
<path d="M17.8201 3.84682C16.0701 2.96682 14.0701 2.48682 12.0001 2.48682C8.47009 2.48682 5.18009 3.87348 2.89009 6.27348C1.99009 7.21348 1.99009 8.79348 2.89009 9.73348C3.68009 10.5602 4.60009 11.2735 5.60009 11.8468" stroke="#8A8A8A" stroke-width="1.5" stroke-linecap="round" stroke-linejoin="round"/>
<path d="M8.41992 13.02C9.55992 13.34 10.7699 13.5133 11.9999 13.5133C15.5299 13.5133 18.8199 12.1266 21.1099 9.72662C22.0099 8.78662 22.0099 7.20662 21.1099 6.26662C20.7799 5.91995 20.4199 5.59329 20.0499 5.28662" stroke="#8A8A8A" stroke-width="1.5" stroke-linecap="round" stroke-linejoin="round"/>
<path d="M15.5099 8.4668C15.2499 9.4068 14.0999 10.1735 12.6899 10.3468" stroke="#8A8A8A" stroke-width="1.5" stroke-linecap="round" stroke-linejoin="round"/>
<path d="M9.47 9.68652L2 14.6665" stroke="#8A8A8A" stroke-width="1.5" stroke-linecap="round" stroke-linejoin="round"/>
<path d="M22 1.3335L14.53 6.3135" stroke="#8A8A8A" stroke-width="1.5" stroke-linecap="round" stroke-linejoin="round"/>
</svg>
